<?xml version="1.0" encoding="UTF-8" standalone="no"?>
<!-- Created with Inkscape (http://www.inkscape.org/) -->

<svg
   xmlns:dc="http://purl.org/dc/elements/1.1/"
   xmlns:cc="http://creativecommons.org/ns#"
   xmlns:rdf="http://www.w3.org/1999/02/22-rdf-syntax-ns#"
   xmlns:svg="http://www.w3.org/2000/svg"
   xmlns="http://www.w3.org/2000/svg"
   xmlns:sodipodi="http://sodipodi.sourceforge.net/DTD/sodipodi-0.dtd"
   xmlns:inkscape="http://www.inkscape.org/namespaces/inkscape"
   width="210mm"
   height="297mm"
   viewBox="0 0 210 297"
   version="1.1"
   id="svg8"
   inkscape:version="0.92.4 (5da689c313, 2019-01-14)"
   sodipodi:docname="earth.svg"
   inkscape:export-filename="C:\Users\Swarup Hegde\Desktop\baseEarth.png"
   inkscape:export-xdpi="300"
   inkscape:export-ydpi="300">
  <defs
     id="defs2" />
  <sodipodi:namedview
     id="base"
     pagecolor="#ffffff"
     bordercolor="#666666"
     borderopacity="1.0"
     inkscape:pageopacity="0.0"
     inkscape:pageshadow="2"
     inkscape:zoom="0.9899495"
     inkscape:cx="308.89073"
     inkscape:cy="539.99414"
     inkscape:document-units="mm"
     inkscape:current-layer="layer3"
     showgrid="false"
     inkscape:window-width="1920"
     inkscape:window-height="1001"
     inkscape:window-x="-9"
     inkscape:window-y="-9"
     inkscape:window-maximized="1"
     inkscape:pagecheckerboard="true"
     showborder="true"
     showguides="false" />
  <metadata
     id="metadata5">
    <rdf:RDF>
      <cc:Work
         rdf:about="">
        <dc:format>image/svg+xml</dc:format>
        <dc:type
           rdf:resource="http://purl.org/dc/dcmitype/StillImage" />
        <dc:title></dc:title>
      </cc:Work>
    </rdf:RDF>
  </metadata>
  <g
     inkscape:groupmode="layer"
     id="layer3"
     inkscape:label="bg">
    <flowRoot
       xml:space="preserve"
       id="flowRoot851"
       style="font-style:normal;font-variant:normal;font-weight:normal;font-stretch:normal;font-size:40px;line-height:1.25;font-family:'Ink Free';-inkscape-font-specification:'Ink Free';letter-spacing:0px;word-spacing:0px;fill:#000000;fill-opacity:1;stroke:none"
       transform="matrix(0.26458333,0,0,0.26458333,4.0090431,16.303441)"><flowRegion
         id="flowRegion853"
         style="font-style:normal;font-variant:normal;font-weight:normal;font-stretch:normal;font-family:'Ink Free';-inkscape-font-specification:'Ink Free'"><rect
           id="rect855"
           width="450.52805"
           height="131.31982"
           x="181.82745"
           y="140.65141"
           style="font-style:normal;font-variant:normal;font-weight:normal;font-stretch:normal;font-family:'Ink Free';-inkscape-font-specification:'Ink Free'" /></flowRegion><flowPara
         id="flowPara857"
         style="font-style:normal;font-variant:normal;font-weight:normal;font-stretch:normal;font-size:80px;font-family:'BankGothic Md BT';-inkscape-font-specification:'BankGothic Md BT'">Trying To </flowPara></flowRoot>    <flowRoot
       xml:space="preserve"
       id="flowRoot883"
       style="font-style:normal;font-variant:normal;font-weight:normal;font-stretch:normal;font-size:40px;line-height:1.25;font-family:'Leelawadee UI';-inkscape-font-specification:'Leelawadee UI';letter-spacing:0px;word-spacing:0px;fill:#000000;fill-opacity:1;stroke:none"
       transform="scale(0.26458333)"><flowRegion
         id="flowRegion885"><rect
           id="rect887"
           width="151.01427"
           height="68.694801"
           x="324.75488"
           y="434.94998" /></flowRegion><flowPara
         id="flowPara889"
         style="fill:#ffffff" /></flowRoot>    <text
       xml:space="preserve"
       style="font-style:normal;font-variant:normal;font-weight:normal;font-stretch:normal;font-size:10.58333302px;line-height:1.25;font-family:'Leelawadee UI';-inkscape-font-specification:'Leelawadee UI';letter-spacing:0px;word-spacing:0px;fill:#000062;fill-opacity:1;stroke:none;stroke-width:0.26458332"
       x="82.719917"
       y="125.81387"
       id="text893"><tspan
         sodipodi:role="line"
         id="tspan891"
         x="82.719917"
         y="125.81387"
         style="fill:#000062;fill-opacity:1;stroke-width:0.26458332">Fit</tspan></text>
    <text
       xml:space="preserve"
       style="font-style:normal;font-variant:normal;font-weight:normal;font-stretch:normal;font-size:10.58333302px;line-height:1.25;font-family:'Leelawadee UI';-inkscape-font-specification:'Leelawadee UI';letter-spacing:0px;word-spacing:0px;fill:#000000;fill-opacity:1;stroke:none;stroke-width:0.26458332"
       x="43.832203"
       y="234.7262"
       id="text943"><tspan
         sodipodi:role="line"
         id="tspan941"
         x="43.832203"
         y="234.7262"
         style="font-style:normal;font-variant:normal;font-weight:normal;font-stretch:normal;font-size:21.16666603px;font-family:'BankGothic Md BT';-inkscape-font-specification:'BankGothic Md BT';stroke-width:0.26458332">This World</tspan></text>
  </g>
  <g
     inkscape:groupmode="layer"
     id="layer2"
     inkscape:label="path">
    <path
       style="fill:#000062;fill-opacity:1;stroke:#000000;stroke-width:0;stroke-linecap:butt;stroke-linejoin:miter;stroke-miterlimit:4;stroke-dasharray:none;stroke-opacity:1"
       d="M 44.347352,141.82233 H 171.34735 C 170.79699,123.1703 165.73649,113.10375 160.19705,104.96966 149.87451,90.081762 138.49712,83.514517 126.1792,79.078291 115.23376,76.21123 103.92394,75.530461 91.972351,78.700313 74.228559,83.402936 62.103317,93.411962 53.418779,106.67055 c -3.811649,8.5659 -8.150799,15.0218 -9.071427,35.15178 z"
       id="path827"
       inkscape:connector-curvature="0"
       sodipodi:nodetypes="ccccccc" />
    <path
       style="fill:#000062;fill-opacity:1;stroke:#000000;stroke-width:0;stroke-linecap:butt;stroke-linejoin:miter;stroke-miterlimit:4;stroke-dasharray:none;stroke-opacity:1"
       d="M 44.611271,157.05346 H 171.61798 c -0.2791,16.02361 -5.51222,24.7981 -11.03211,34.2848 -10.68715,13.36212 -20.81543,19.72169 -32.89433,24.05141 -9.87819,2.7261 -20.07627,4.69632 -33.630791,1.68232 -17.880466,-4.47141 -30.295251,-13.98833 -39.362946,-26.59504 -4.059098,-8.14474 -8.584821,-14.28323 -10.086532,-33.42349 z"
       id="path827-4"
       inkscape:connector-curvature="0"
       sodipodi:nodetypes="ccccccc" />
    <path
       style="fill:#008000;fill-opacity:1;stroke:#000000;stroke-width:0;stroke-linecap:butt;stroke-linejoin:miter;stroke-miterlimit:4;stroke-dasharray:none;stroke-opacity:1"
       d="m 53.418779,106.67055 c 2.941041,-5.4118 7.271559,-10.128849 12.378722,-14.457588 l 0.850444,0.18899 0.850448,-0.94494 c 2.389358,-0.98548 4.568888,-0.92182 6.709077,-0.66146 l 0.472471,0.75595 3.307292,1.03944 3.212796,0.18898 0.94494,2.55134 1.889882,-0.37797 1.133928,1.32292 1.606399,0.28348 -1.889882,0.66145 -2.645833,-0.66145 c -0.312259,1.18899 0.286884,1.83114 1.228423,2.26785 l -1.511903,1.13393 -1.039437,-0.75595 -3.118302,-0.85045 -4.346726,-0.56696 2.078868,-0.75595 0.377976,-0.85045 1.228423,-0.56696 c 0.440046,-0.91204 -0.22769,-1.32211 -0.755951,-1.79539 l -1.889882,1.98437 v -1.98437 c -1.763889,0.15579 -3.527778,-1.52374 -5.291667,0.66146 l 0.755952,1.13393 -3.96875,0.66146 -0.377976,1.13392 h -0.850445 l -0.188989,0.94494 H 62.30122 l -0.377976,0.75596 -1.228423,0.28348 -0.283483,0.850448 -0.944938,0.18898 -0.377979,1.13393 -1.322916,0.56696 c 0.499305,1.59881 1.709677,1.95326 3.212798,1.79539 l -0.09449,0.75595 c 0.881944,0.19641 1.763889,0.71119 2.645833,-0.28348 l 1.511903,1.41741 3.874257,0.0945 0.377976,0.94494 0.661458,1.22842 1.795388,1.32292 1.039435,-1.79539 -0.283483,-1.22842 c 0.771048,-0.3832 1.635993,-0.0152 2.173364,-2.26786 l -1.417412,-1.13393 0.283482,-2.92931 c 1.032634,0.76275 2.783029,0.80774 4.819198,0.56696 l 0.283482,1.03944 h 1.228421 l 0.283482,0.75595 0.661459,1.03943 c 1.870151,0.58955 2.245302,-0.68965 3.212798,-1.22842 l 1.795386,0.66146 v 0.94494 l 1.039434,0.66146 0.188989,0.66145 1.322917,0.47248 0.188989,0.47246 0.850445,0.0945"
       id="path844"
       inkscape:connector-curvature="0"
       sodipodi:nodetypes="cccccccccccccccccccccccccccccccccccccccccccccccccccccccccccccccc" />
    <path
       style="fill:none;stroke:#000000;stroke-width:0.26458332px;stroke-linecap:butt;stroke-linejoin:miter;stroke-opacity:1"
       d="M 88.351936,168.20461 Z"
       id="path846"
       inkscape:connector-curvature="0" />
    <path
       style="fill:#008000;fill-opacity:1;stroke:#000000;stroke-width:0;stroke-linecap:butt;stroke-linejoin:miter;stroke-miterlimit:4;stroke-dasharray:none;stroke-opacity:1"
       d="m 89.421017,106.19808 1.511903,2.17336 1.133927,0.28348 c -1.988219,0.0408 -4.275638,-0.0815 -3.590774,1.41741 -0.882623,-0.20711 -1.781046,-0.46952 -2.173361,1.03944 l -1.6064,-0.94494 c -0.966001,0.0211 -0.773764,-1.11612 -3.307291,0.47247 l -1.039434,1.03943 2.078868,0.94494 1.039434,-1.22842 0.850448,-0.18899 0.09449,1.88988 1.795386,0.75596 -0.28348,1.22842 -2.456847,0.56696 -0.850445,-0.85044 -1.984375,0.75595 -1.417412,0.18899 -0.188987,1.70089 -2.267857,0.47247 v 0.28348 l -1.228424,0.56697 -0.09449,1.5119 -1.228423,0.28348 0.09449,2.07887 -1.039434,0.66146 -0.661459,1.03944 -1.039434,0.18898 -0.661458,1.22843 -0.944941,-0.37798 c -0.791493,0.80017 0.02166,2.80382 1.228423,5.10268 l -1.322916,-0.18899 -0.944941,-2.83482 -1.984375,-0.37798 -0.850445,-0.56696 -4.157739,1.03943 -3.590774,-0.18898 -0.283483,1.32291 -1.606399,0.28348 -0.566962,2.45685 c -0.294927,3.26898 0.740829,5.04095 2.456844,6.04762 3.155039,0.56462 4.004143,-0.66001 4.724701,-1.98438 l 1.700895,0.0945 -1.228423,2.92931 v 0 c 0.392401,1.39225 2.15383,1.62119 4.535715,1.32292 v 1.98437 h -2.645833 c 0,0 -0.188989,-0.0945 -0.661459,-0.28348 -0.472471,-0.18898 -2.740329,-0.56696 -2.740329,-0.56696 l -1.039434,-1.22842 -0.661458,0.0945 -0.472469,-0.94494 -1.228424,-0.0945 -1.984375,0.47247 -2.55134,-1.13393 -0.472469,-0.75595 c -0.623999,-0.41459 -1.079096,-1.42034 -2.173364,-0.18899 l -0.377976,-1.51191 -1.133927,-0.37797 -0.661459,-1.98438 c -1.263346,-0.91002 -2.688867,-1.65786 -2.740329,-3.77976 h -0.944938 c 0.48749,-6.71245 4.086016,-17.01884 8.457215,-23.85975"
       id="path848"
       inkscape:connector-curvature="0"
       sodipodi:nodetypes="ccccccccccccccccccccccccccccccccccccccccccccccccsccccccccccccccc" />
    <path
       style="fill:#6bb94a;fill-opacity:1;stroke:#000000;stroke-width:0;stroke-linecap:butt;stroke-linejoin:miter;stroke-miterlimit:4;stroke-dasharray:none;stroke-opacity:1"
       d="m 66.642477,157.05148 1.703843,2.53071 0.250565,-2.57247 z"
       id="path852"
       inkscape:connector-curvature="0" />
    <path
       style="fill:#008000;fill-opacity:1;stroke:#000000;stroke-width:0;stroke-linecap:butt;stroke-linejoin:miter;stroke-miterlimit:4;stroke-dasharray:none;stroke-opacity:1"
       d="m 72.716669,168.20461 2.271789,-1.73725 v -3.60814 l -0.801809,-1.60362 1.603618,0.26727 1.603619,-1.33635 1.336346,-1.87088 0.400905,2.67269 2.405425,-2.00452 1.603618,0.53454 1.202712,-0.13364 0.267268,1.06908 1.603619,-0.93544 h 2.00452 l -0.133633,1.73725 2.00452,1.46998 0.801815,1.60362 c 1.32019,-1.25926 2.78391,-2.01615 4.81085,-0.80181 l 0.26727,1.33635 1.60361,2.67269 c -2.38031,0.008 -2.01396,0.9323 -2.40542,1.60362 h 2.53906 l -0.13364,1.46999 c 2.03608,1.48854 2.22728,-0.71267 2.939969,-1.87089 l 2.80633,1.87089 c 0.84635,0.53358 1.69271,1.312 2.53906,0.13363 l 1.33635,1.06908 2.40542,1.46998 0.93545,2.00452 -2.80633,3.34087 -0.80181,4.27631 -1.20271,1.06908 0.13363,1.46998 -0.80181,0.93545 -0.13363,1.46998 c -1.02453,-0.45669 -2.04907,-0.83574 -3.07361,0.80181 -2.070469,-1.60362 -2.328759,1.03994 -3.474499,1.60361 l 0.26727,2.13816 -0.4009,1.33635 h -1.73726 l -0.26726,2.40543 -1.20272,0.13363 -0.13363,1.20271 -0.66817,-0.26727 -1.60362,1.06908 -1.33635,-1.60361 -0.26727,1.73725 1.20271,0.93544 -1.06907,0.66818 -0.13364,1.33634 h -2.80633 c -0.534539,0 -2.405426,1.33635 -2.405426,1.33635 l -1.069078,0.13364 0.668174,1.87088 -1.603617,2.27179 h -0.935443 l 1.202712,1.60362 -0.400904,1.73725 h -1.202713 l -1.202713,2.27179 -4.276312,-2.27179 v -0.93544 -3.34087 l 1.202713,-0.93544 v -5.21176 l 1.469982,-2.00452 v -0.66817 l 1.069078,-1.73726 -0.668173,-1.60361 v -1.87089 l 1.202712,-0.80181 -0.133634,-1.20271 0.133634,-6.1472 -1.336347,-1.46998 -0.534539,0.66817 -0.26727,-1.20271 -1.202713,-0.40091 -0.801808,-0.66817 -1.603617,-0.26727 v -1.60362 l -0.668174,-0.53454 v -2.13815 l -1.469983,-0.13364 -0.400904,-2.27179 -1.737252,-1.73725 1.603617,-1.06908 z"
       id="path854"
       inkscape:connector-curvature="0"
       sodipodi:nodetypes="ccccccccccccccccccccccccccccccccccccccccccccccccccscccccccccccccccccccccccccccccccccccc" />
    <path
       style="fill:#008000;fill-opacity:1;stroke:#000000;stroke-width:0;stroke-linecap:butt;stroke-linejoin:miter;stroke-miterlimit:4;stroke-dasharray:none;stroke-opacity:1"
       d="m 125.81715,157.10657 0.46772,1.5368 1.73726,0.46772 0.46772,1.5368 v 0.40091 h 0.93544 l -0.0668,0.93544 1.1359,0.0668 0.33408,0.86862 0.60136,0.33409 0.46772,0.60136 0.86863,0.33408 1.00226,-0.80181 0.86862,-0.13363 1.40317,-0.0668 1.1359,0.13364 c 0,0 1.20271,0 1.5368,-0.0668 0.33408,-0.0668 0.73499,-0.13363 0.73499,-0.13363 l 1.00226,-1.26954 3.27405,0.26728 -0.0668,0.73499 0.73499,0.33408 0.0668,1.20271 2.73951,-1.00226 0.46772,0.53454 1.20272,0.66818 -0.73499,1.5368 -0.53454,3.20723 1.5368,1.26953 0.26727,1.06908 0.4009,0.20045 v 0.86863 l 1.20271,1.06908 0.13364,2.67269 0.86862,1.33635 -2.00452,2.07134 -0.13363,3.74177 0.66817,0.33409 0.26727,0.86862 0.40091,0.13364 0.26726,0.80181 0.60136,0.73499 0.0668,1.26953 0.66817,0.86863 0.0668,0.93544 0.53454,2.13815 0.80181,0.60136 0.4009,1.87089 0.73499,0.46772 0.26727,2.40542 4.96819,-5.72512 c 7.85418,-12.44926 11.19306,-23.79479 11.03211,-34.2848 z"
       id="path856"
       inkscape:connector-curvature="0"
       sodipodi:nodetypes="ccccccccccccccccccccccccccccccccccccccccccccccccccccc" />
    <path
       style="fill:#008000;fill-opacity:1;stroke:#000000;stroke-width:0;stroke-linecap:butt;stroke-linejoin:miter;stroke-miterlimit:4;stroke-dasharray:none;stroke-opacity:1"
       d="m 125.5465,141.87546 -0.80181,-1.80407 c 1.98903,-1.7628 1.20302,-2.88521 1.00226,-4.14268 l 0.13364,-2.67269 1.20271,-1.20271 -0.0668,-0.86863 0.80181,-0.53454 0.0668,-0.53454 0.80181,-0.46772 0.66817,-0.60136 1.33635,-0.53453 0.60136,-2.93997 0.80181,-0.33409 0.26726,-0.66817 0.93545,-0.26727 0.80181,-0.73499 3.4745,-0.20045 0.60136,-0.26727 0.73499,-0.53454 3.34087,-0.60136 3.40768,-0.13363 1.33635,-0.73499 c 0.60454,0.42636 1.26183,0.83161 1.00226,1.60361 l -0.46772,1.00226 c 0.68553,1.31085 1.68265,2.22109 3.60814,1.93771 l 0.4009,0.80181 1.46999,0.4009 1.60361,0.86863 1.46999,-1.1359 0.8018,-0.26727 0.33409,-0.93544 2.40543,0.13363 0.4009,0.86863 1.73725,0.13363 0.40091,0.46773 -0.33409,1.60361 1.26953,-1.33634 0.86863,-0.26727 0.20045,-0.33409 3.34087,0.20045 1.73725,-1.73725 c 0.93587,4.92427 2.03907,10.04842 2.10228,16.71803 z"
       id="path858"
       inkscape:connector-curvature="0"
       sodipodi:nodetypes="ccccccccccccccccccccccccccccccccccccccccccc" />
    <path
       style="fill:#008000;fill-opacity:1;stroke:#000000;stroke-width:0;stroke-linecap:butt;stroke-linejoin:miter;stroke-miterlimit:4;stroke-dasharray:none;stroke-opacity:1"
       d="m 150.53955,93.630082 -0.60135,0.73499 -0.80181,0.66817 -0.53454,0.66818 h -0.53454 l -0.4009,1.40316 -1.1359,-0.13363 -1.20271,1.06908 -1.73725,-0.26727 -0.13364,0.60135 -0.80181,0.73499 0.13364,2.271798 c 1.18289,1.08621 2.12019,0.45329 3.14042,0.4009 -0.3174,-0.68489 -0.10503,-1.05192 0.46772,-1.20271 1.20585,0.49215 2.05652,1.30002 1.67043,3.20723 l 2.27179,-1.1359 1.80407,-0.26726 0.20045,-1.33635 0.53454,-0.60136 -0.8018,-1.269528 v -1.46998 l 1.80406,-0.53454 z"
       id="path860"
       inkscape:connector-curvature="0"
       sodipodi:nodetypes="ccccccccccccccccccccccc" />
    <path
       style="fill:#008000;fill-opacity:1;stroke:#000000;stroke-width:0;stroke-linecap:butt;stroke-linejoin:miter;stroke-miterlimit:4;stroke-dasharray:none;stroke-opacity:1"
       d="m 136.97563,116.28116 1.46998,-1.00226 0.20045,-1.67043 -1.06907,-0.86863 -0.0668,-0.46772 -0.93544,-0.66817 4.27631,-0.73499 0.33409,-1.46999 1.9377,-0.0668 0.46772,-0.93545 2.6727,-0.53454 0.60135,-0.33408 -0.53454,-0.60136 0.0668,-1.80407 1.60362,0.0668 0.0668,1.33635 0.60135,0.60135 0.73499,0.0668 5.87993,-0.33409 1.93771,-0.93544 v -1.00226 l 0.4009,-0.33409 1.1359,0.26727 1.06907,-0.46772 c 3.58819,5.54926 6.7113,11.22536 8.35218,17.3057 l -4.40995,0.26727 -0.60136,-0.80181 -1.46998,-0.8018 -0.26727,-2.20498 c -0.53454,-0.32786 -1.06908,-0.5507 -1.60362,0 -1.19436,0.17226 -0.85016,1.35094 -1.00226,2.20498 l -0.4009,0.73499 -1.46998,0.33408 0.20045,-1.26953 -0.93544,-0.80181 -0.33409,-1.67043 -0.73499,-0.20045 -0.40091,-0.93545 -0.86862,-0.26727 -1.00226,-1.06907 -1.00226,0.0668 -0.26727,-0.80181 -1.73723,-0.66813 c -0.44867,0.62363 -1.05873,1.24726 -0.13364,1.87089 l 1.5368,1.40316 -1.5368,0.46773 -0.86862,-1.00226 -0.40091,-0.13364 -0.26727,-0.73499 c -1.72527,-0.52668 -2.97412,-0.38635 -3.80859,0.33409 l -2.20497,-0.46773 -0.73499,1.87089 -1.80407,0.40091 v 0.60135 l -1.00226,0.53454 -0.26727,1.46998 -2.60588,0.66818 -1.1359,0.80181 -1.33634,-1.00227 -1.80407,-0.33408 -0.20046,-1.73725 1.06908,-0.86863 -0.46772,-0.60136 0.0668,-0.73499 h 0.60136 l -0.13364,-0.46772 0.53454,-0.53454 c 0.97999,0.47061 1.95997,0.82391 2.93996,0.0668 z"
       id="path862"
       inkscape:connector-curvature="0"
       sodipodi:nodetypes="ccccccccccccccccccccccccccccccccccccccccccccccccccccccccccccccccccccc" />
    <text
       xml:space="preserve"
       style="font-style:normal;font-variant:normal;font-weight:normal;font-stretch:normal;font-size:31.75px;line-height:1.25;font-family:'Leelawadee UI';-inkscape-font-specification:'Leelawadee UI';letter-spacing:0px;word-spacing:0px;fill:#000000;fill-opacity:1;stroke:none;stroke-width:0.26458332"
       x="83.655365"
       y="127.01657"
       id="text897"><tspan
         sodipodi:role="line"
         id="tspan895"
         x="83.655365"
         y="127.01657"
         style="font-style:normal;font-variant:normal;font-weight:normal;font-stretch:normal;font-size:31.75px;font-family:'BankGothic Md BT';-inkscape-font-specification:'BankGothic Md BT';fill:#ffffff;stroke-width:0.26458332">Fit</tspan></text>
    <text
       xml:space="preserve"
       style="font-style:normal;font-variant:normal;font-weight:normal;font-stretch:normal;font-size:31.75px;line-height:1.25;font-family:'Leelawadee UI';-inkscape-font-specification:'Leelawadee UI';letter-spacing:0px;word-spacing:0px;fill:#000000;fill-opacity:1;stroke:none;stroke-width:0.26458332"
       x="93.599464"
       y="190.91393"
       id="text897-7"><tspan
         sodipodi:role="line"
         id="tspan895-1"
         x="93.599464"
         y="190.91393"
         style="font-style:normal;font-variant:normal;font-weight:normal;font-stretch:normal;font-size:31.75px;font-family:'BankGothic Md BT';-inkscape-font-specification:'BankGothic Md BT';fill:#ffffff;stroke-width:0.26458332">in</tspan></text>
  </g>
</svg>
